<svg xmlns="http://www.w3.org/2000/svg" viewBox="0 0 64 64" role="img" aria-label="Caspar Niekus favicon">
  <rect width="64" height="64" rx="14" fill="#0b0b14"/>
  <path d="M29.8 44.2c-1.8.8-3.8 1.2-6.1 1.2-8.2 0-14.1-5.5-14.1-13.4s5.9-13.4 14.1-13.4c2.3 0 4.3.4 6.1 1.2v6c-1.8-1.1-3.7-1.7-5.9-1.7-4.8 0-8.1 3.2-8.1 7.9s3.3 7.9 8.1 7.9c2.2 0 4.1-.6 5.9-1.7v6Z" fill="#e2e8f0"/>
  <path d="M32.9 45V19h5.3l11.1 16.1V19h6.1v26h-5.2L39.4 28.8V45h-6.5Z" fill="#818cf8"/>
  <path d="M14 15h36" stroke="#6366f1" stroke-width="3.5" stroke-linecap="round"/>
</svg>
